<svg xmlns="http://www.w3.org/2000/svg" height="800" width="1200" viewBox="-45 -47.70125 390 286.2075"><defs><clipPath id="a"><path d="M34.937 755.276h61.725v39.29H34.937z"/></clipPath></defs><g clip-path="url(#a)" transform="matrix(4.8635 0 0 -4.8635 -170.015 3864.226)"><path d="M86.817 772.665c-.225-.204-.957-.597-1.71-.648a16.925 16.925 0 002.183 2.89c.594.626.654.038.654.038.097-1.14-.76-1.976-1.127-2.28m1.351 3.644c-1.321.981-3.569-1.94-4.589-3.375-.123.755.412 1.69.412 1.69s.859 1.384.979 1.67c.122.284.205.876.062.937-.122.062-.345-.122-.345-.122-1.876-1.585-2.184-3.397-2.184-3.397-.206-.979-.016-1.667.26-2.16-1.066-2.144-1.657-4.01-1.536-5.13.081-.856.689-1.487 1.054-1.63.366-.165.451.283.451.283.354 2.171.935 3.962 1.555 5.351l.065-.016c1.894-.479 3.38 1.317 3.91 2.192.677 1.12.74 3.074-.094 3.707m-26.448 4.893c.39.569.94.834 1.59.872a6.733 6.733 0 01-1.774-1.747c-.127.177-.101.449.185.875m.895-1.49c.657.915 1.996 1.994 2.853 2.116.489.058.637-.138.663-.35.022-.215-.074-.447-.074-.447-.797-1.506-2.486-1.528-3.442-1.318m1.543-1.121c1.468.445 2.919 1.826 2.96 2.966.063 1.142-1.22 1.184-1.22 1.184h-.04c-.23.704-1.527.654-1.527.654-2.71-.138-3.671-1.99-3.793-2.477a1.576 1.576 0 01.426-1.548c-.166-.407-.041-.592 0-.693.04-.142.265-.57.526-.551.185.02.32.147.573.548.533-.234 1.158-.37 2.095-.083m17.505-6.874c.1.347-.201.732-.486.814-.265.064-2.323-.26-2.57-.32-.262-.06-.141.183-.141.183s.202.655.333 1.017c.696.02 1.505.044 2.258.098.264.019.283.225.283.225s.039.305.039.59c-.018.305-.26.286-.26.286-.417.057-1.12.07-1.81.06.14.333.257.629.304.797 0 0 2.075.037 2.87.202.409.078.184.486.184.486-.464.999-1.035.958-1.035.958-1.63.105-4.012-.258-4.277-.378-.245-.101-.226-.285.078-.695.158-.207.375-.304.55-.357.079-.024.192-.051.333-.078-.117-.204-.31-.59-.5-.988H77.8c-.41-.027-.551-.144-.551-.144-.174-.173-.074-.607.005-.841a.375.375 0 01.068-.126l-.014-.03c-.097-.248-.758-1.566-.27-2.425.53-.896 1.182-.877 1.182-.877 1.243-.124 3.32 1.116 3.444 1.543m-36 3.219s-.388.427.202.692c.526.22 1.672.487 3.632.58-.092-1.202-.184-2.551-.195-3.744-1.247.53-2.58 1.266-3.639 2.472m9.154 8.028s-6.142 3.39-11.317 1.77c0 0-.33.022-.636-.405-.305-.406-.569-.69-.426-1.018.142-.326.935-.49 1.648-.288 0 0 .326.204-.08.346-.389.143-.61.184-.61.184s-.205.043.017.143c.204.1 2.57.789 6.682-.418 4.113-1.19 9.624-4.702 9.354-8.184-.269-3.482-5.728-3.473-5.728-3.473s-1.122-.022-2.607.31c.002.706.066 2.787.116 4.277 2.116-.057 4.208-.501 4.37-1.026 0 0 .101-.243-.387-.467-.448-.183-.796-.327-.433-.51 0 0 .533-.265.88-.244.326.02 1.201.387 1.304 1.322.124.957-.953 1.834-2.603 2.182-1.262.267-1.935.36-3.075.353.023 1.039-.076 2.342-.298 2.648-.265.407-.57.957-.837.369-.223-.51-.43-1.63-.533-3.117-1.754-.23-3.707-.91-4.319-1.624-.654-.79-.046-1.464.015-1.525.04-.081 1.261-1.96 3.985-3.307.04-.487.121-1.038.305-1.343.405-.653 1.201-.226 1.302-.125.082.082.144.284.185.773 1.217-.362 3.46-.76 5.864-.11 3.648.99 4.222 3.21 4.37 4.532.141 1.344-.749 4.849-6.508 7.975m8.605-6.614c-.018.47-.18.693-.323.897-.121.202-.325.467-.671.184-.327-.284-.413-2.118-.495-3.605-.087-1.464-.044-2.4.137-2.644.185-.268.854-.392 1.179-.167.306.223.23 2.422.23 2.422s-.035 2.444-.057 2.913m7.476.659c-.466.552-3.095.535-3.095.535-.957-.06-3.177-.38-3.524-1.38-.328-.953-.065-1.301-.065-1.301.264-.51 2.158-.533 2.666-.575.532-.042 1.898-.246 2.362-.535.469-.306.143-.651.143-.651-.815-.854-3.463-.93-4.136-.5-.264.16-.325.365-.04.649.287.306 1.162-.184 1.06-.144-.103.062.426-.307 1.159-.35.754-.038 1.284.224 1.325.488.043.246-.63.512-.63.512-2.217.695-3.115.188-3.115.188-1.244-.73-.37-1.77-.37-1.77 1.91-2.164 5.01-.906 5.374-.601.348.284.513.61.554 1.486.042.854-.323 1.243-.323 1.243-.611.814-2.381.858-2.912.902-.488.02-1.506.204-1.75.268-.245.06-.082.243-.082.243.226.306 4.748.48 4.748.48.468.038.529.327.632.509.08.183.019.305.019.305m3.89 1.236s-.283.143-.364-.143c-.083-.285.018-.59.018-.59.649-2.466.766-3.913.766-3.913s.022-.425-.061-.447c-.06-.04-.121.022-.121.022-.082 0-.833 1.345-.833 1.345l-.142.265c-.771 1.445-1.34 1.916-1.34 1.916-.122.122-.427.45-.835.021-.41-.426-.757-1.83-.924-3.154-.142-1.324-.084-2.079.097-2.403.205-.326.61-.45.959-.186.367.266.35 2.016.434 2.911.082.897.164.734.164.734.079.02.468-.815.468-.815s1.01-2.244 1.685-2.59c.67-.347 1.242.161 1.466.651.227.487.638 2.117.149 3.947-.486 1.838-1.586 2.43-1.586 2.43m-11.477-10.392l-2.82.004a.346.346 0 11-.003-.692h.771c.143 0 .262-.12.261-.264l-.006-2.954c0-.206.173-.37.377-.37.206 0 .376.161.38.37l.002 2.952c0 .146.12.264.263.264l.773-.001a.344.344 0 01.342.345.345.345 0 01-.34.346m8.977-1.412c0-.43-.344-.71-.876-.71l-1.096.003.004 1.163c0 .146.12.263.264.263l.823-.001c.553-.001.881-.25.881-.707zm-.818 1.398l-1.518.002a.37.37 0 01-.376-.375l-.005-3.532a.365.365 0 01.373-.37c.208 0 .371.163.371.369l.001.877c0 .146.12.264.265.264l.675-.001v-.001h.002l1.03-1.318a.431.431 0 01.365-.196c.18 0 .357.14.357.346 0 .116-.048.194-.12.286l-.81 1.026c.57.175.964.586.964 1.266v.011c.002.37-.126.686-.35.918-.273.266-.69.426-1.224.427m5.674-3.59l-2.13.003.002.877c.001.144.12.265.266.264l1.56-.002a.331.331 0 01.334.327.336.336 0 01-.333.34l-1.826.003.003.843c0 .145.118.263.263.263l1.836-.004c.181 0 .333.144.333.332a.336.336 0 01-.33.336l-2.472.004a.372.372 0 01-.377-.376l-.007-3.496c0-.211.165-.375.376-.376l2.502-.004c.181 0 .333.145.333.333 0 .182-.15.334-.333.334m-9.37 1.46c-.005-.826-.594-1.49-1.437-1.49-.843 0-1.445.682-1.442 1.508v.01c.002.825.591 1.498 1.434 1.498.844-.002 1.444-.689 1.444-1.515zm-1.43 2.212c-1.307.002-2.229-.996-2.232-2.194v-.013c-.002-1.193.907-2.184 2.211-2.187 1.305-.001 2.228.996 2.232 2.192v.012c.001 1.195-.908 2.186-2.21 2.19m-8.21-1.844c-.819.194-1.012.341-1.012.67v.012c.001.278.257.503.693.503.334 0 .65-.112.975-.325a.392.392 0 01.196-.056.35.35 0 01.353.346.333.333 0 01-.163.297 2.34 2.34 0 01-1.348.398c-.842.002-1.45-.503-1.45-1.23v-.01c-.006-.784.506-1.053 1.411-1.273.788-.183.957-.347.957-.649v-.013c0-.317-.293-.532-.753-.532-.462.001-.838.158-1.19.44a.356.356 0 01-.22.065.348.348 0 01-.205-.63 2.647 2.647 0 011.595-.537c.891-.002 1.518.47 1.52 1.266v.011c0 .704-.459 1.025-1.36 1.246"/><path d="M63.312 767.856l-2.82.004a.346.346 0 11-.003-.692h.771c.143 0 .262-.12.261-.264l-.006-2.954c0-.206.173-.37.377-.37.206 0 .376.161.38.37l.002 2.952c0 .146.12.264.263.264l.773-.001a.344.344 0 01.342.345.345.345 0 01-.34.346m8.977-1.412c0-.43-.344-.71-.876-.71l-1.096.003.004 1.163c0 .146.12.263.264.263l.823-.001c.553-.001.881-.25.881-.707zm-.818 1.398l-1.518.002a.37.37 0 01-.376-.375l-.005-3.532a.365.365 0 01.373-.37c.208 0 .371.163.371.369l.001.877c0 .146.12.264.265.264l.675-.001v-.001h.002l1.03-1.318a.431.431 0 01.365-.196c.18 0 .357.14.357.346 0 .116-.048.194-.12.286l-.81 1.026c.57.175.964.586.964 1.266v.011c.002.37-.126.686-.35.918-.273.266-.69.426-1.224.427m5.674-3.59l-2.13.003.002.877c.001.144.12.265.266.264l1.56-.002a.331.331 0 01.334.327.336.336 0 01-.333.34l-1.826.003.003.843c0 .145.118.263.263.263l1.836-.004c.181 0 .333.144.333.332a.336.336 0 01-.33.336l-2.472.004a.372.372 0 01-.377-.376l-.007-3.496c0-.211.165-.375.376-.376l2.502-.004c.181 0 .333.145.333.333 0 .182-.15.334-.333.334m-9.37 1.46c-.005-.826-.594-1.49-1.437-1.49-.843 0-1.445.682-1.442 1.508v.01c.002.825.591 1.498 1.434 1.498.844-.002 1.444-.689 1.444-1.515zm-1.43 2.212c-1.307.002-2.229-.996-2.232-2.194v-.013c-.002-1.193.907-2.184 2.211-2.187 1.305-.001 2.228.996 2.232 2.192v.012c.001 1.195-.908 2.186-2.21 2.19m-8.21-1.844c-.819.194-1.012.341-1.012.67v.012c.001.278.257.503.693.503.334 0 .65-.112.975-.325a.392.392 0 01.196-.056.35.35 0 01.353.346.333.333 0 01-.163.297 2.34 2.34 0 01-1.348.398c-.842.002-1.45-.503-1.45-1.23v-.01c-.006-.784.506-1.053 1.411-1.273.788-.183.957-.347.957-.649v-.013c0-.764 2.691-.532-.753-.532-.462.001-.838.158-1.19.44a.356.356 0 01-.22.065.348.348 0 01-.205-.63 2.647 2.647 0 011.595-.537c.891-.002 1.518.47 1.52 1.266v.011c0 .704-.459 1.025-1.36 1.246"/><path d="M65.77 756.978c-15.71.027-28.43 8.083-28.413 17.99.017 9.91 12.765 17.923 28.473 17.896 15.71-.027 28.428-8.083 28.414-17.993-.017-9.91-12.766-17.92-28.475-17.893m.064 37.559c-17.034.029-30.857-8.728-30.876-19.565-.02-10.832 13.773-19.638 30.81-19.667 17.033-.03 30.858 8.728 30.874 19.563.02 10.834-13.775 19.64-30.808 19.669"/><path d="M53.662 766.498l1.294.112c.024 0 .04.008.054.024a.104.104 0 01.033.066c0 .042-.038.082-.083.085l-1.294.158c.107.154.332.489.332.489.025.032.018.078-.011.109a.088.088 0 01-.11.016l-.498-.316a96.543 96.543 0 01-.108 1.296.087.087 0 01-.09.081.074.074 0 01-.06-.02c-.02-.02-.028-.035-.03-.058 0 0-.13-1.061-.152-1.296l-.464.299c-.03.025-.077.02-.108-.007l-.003-.002c-.031-.028-.034-.075-.013-.11l.29-.464-1.303-.113a.08.08 0 01-.051-.028.102.102 0 01-.033-.061.092.092 0 01.084-.091l1.293-.155-.304-.44a.091.091 0 01.006-.109.098.098 0 01.114-.019s.317.186.467.277c.025-.233.119-1.304.119-1.304a.09.09 0 01.086-.082.082.082 0 01.06.026c.016.015.029.029.03.055l.156 1.296.475-.3c.03-.026.079-.02.107.011a.09.09 0 01.017.112s-.202.306-.302.463m.78 2.298a.174.174 0 01.177.173c0 .096-.08.174-.174.174a.173.173 0 01-.173-.174.17.17 0 01.17-.173m-2.832-1.269c.094 0 .172.079.172.174a.17.17 0 01-.172.174.176.176 0 01-.175-.173c0-.096.08-.175.175-.175m-1.77-.817c.097 0 .177.077.177.174a.174.174 0 01-.176.172.17.17 0 01-.17-.172c0-.096.075-.174.17-.174m-.084-1.713a.173.173 0 01.174.173.172.172 0 01-.172.173.173.173 0 11-.002-.346m-.414-1.418a.176.176 0 01-.174-.172c0-.098.08-.177.174-.177a.175.175 0 110 .349m3.03-2.589a.174.174 0 01-.17-.174c0-.097.078-.176.17-.176a.175.175 0 110 .35m-1.302 3.449a.174.174 0 01-.003-.349c.099 0 .175.08.175.174a.173.173 0 01-.172.175m-.005-1.242a.174.174 0 11.002-.348.174.174 0 01-.002.348m.909 2.471a.306.306 0 11.306-.307.308.308 0 01-.306.307m3.124 2.415a.302.302 0 01-.305-.304c0-.17.134-.308.305-.308.167 0 .305.137.308.307a.307.307 0 01-.308.305m-4.368-3.155c.015 0 .03.015.035.037l.003.003.195.806.784.187h.006c.02.007.035.02.035.038 0 .017-.015.031-.035.035l-.79.196-.195.813c-.003.019-.02.035-.036.035-.017 0-.03-.013-.034-.034l-.201-.814-.79-.191c-.023-.004-.041-.017-.041-.038 0-.018.018-.033.04-.037l.79-.189.195-.813c.007-.019.02-.034.039-.034m-.688-.671l-.09.371c0 .008-.005.016-.016.016-.006 0-.013-.008-.016-.016l-.09-.371-.36-.087a.017.017 0 01-.017-.017c0-.008.008-.017.017-.018l.36-.087.09-.369c0-.009.008-.015.015-.015.01 0 .015.006.018.016v.001l.089.366.36.086c.009.003.016.01.016.016 0 .01-.007.018-.015.018zm1.226-2.548l-.087.371c0 .01-.01.017-.017.017-.008 0-.011-.007-.017-.017l-.09-.371-.36-.086c-.01 0-.02-.008-.02-.018 0-.008.01-.014.02-.017l.36-.086.09-.369c.004-.01.009-.017.015-.017.009 0 .017.007.019.018v.002l.087.365.363.086c.008.003.015.01.015.016 0 .009-.007.015-.015.02zm3.498 4.14l-.087.372c-.004.009-.011.016-.02.016-.005 0-.012-.007-.015-.016l-.09-.372-.36-.086c-.012-.002-.021-.009-.021-.018s.009-.015.02-.018l.358-.086.089-.369c.004-.01.01-.015.018-.015.007 0 .016.006.019.016l.089.368.358.086c.01.003.018.009.018.015 0 .01-.007.016-.017.019z"/></g></svg>